<svg width="20" height="18" viewBox="0 0 20 18" fill="none" xmlns="http://www.w3.org/2000/svg">
<path d="M0.243577 4.00395L4.36663 5.4414V8.75302C4.36663 8.89495 4.45033 9.02596 4.58134 9.08418C6.21891 9.81927 8.03107 10.2087 9.82534 10.2087C11.6196 10.2087 13.4025 9.83019 15.0694 9.08418C15.2004 9.02596 15.2841 8.89495 15.2841 8.75302V5.4414L17.4675 4.68084V6.63138C16.9435 6.78787 16.5577 7.27186 16.5577 7.84685C16.5577 8.22168 16.7215 8.55282 16.9799 8.78572C16.7069 9.54265 16.5577 10.3323 16.5577 11.1438C16.5577 11.6024 16.9326 11.9772 17.3911 11.9772H18.2681C18.7266 11.9772 19.1014 11.6024 19.1014 11.1438C19.1014 10.336 18.9559 9.54628 18.6793 8.78572C18.9377 8.55282 19.1014 8.21802 19.1014 7.84685C19.1014 7.27186 18.7157 6.79153 18.1917 6.63138V4.42609L19.4035 4.00395C19.5491 3.95301 19.6473 3.81472 19.6473 3.66187C19.6473 3.50902 19.5491 3.37074 19.4035 3.31978L9.94188 0.0191061C9.86546 -0.00636869 9.77812 -0.00636869 9.70171 0.0191061L0.243824 3.31606C0.0982611 3.367 0 3.50529 0 3.65814C0 3.811 0.0982565 3.94927 0.243824 4.00023L0.243577 4.00395ZM18.377 11.1403C18.377 11.1985 18.3297 11.2458 18.2715 11.2458H17.3945C17.3363 11.2458 17.289 11.1985 17.289 11.1403C17.289 10.4416 17.4127 9.75743 17.6419 9.09876C17.7038 9.10968 17.7693 9.11696 17.8348 9.11696C17.9003 9.11696 17.9658 9.10604 18.0277 9.09876C18.257 9.75743 18.3807 10.4416 18.3807 11.1403H18.377ZM18.377 7.84333C18.377 8.14538 18.1332 8.38921 17.8312 8.38921C17.5291 8.38921 17.2853 8.14538 17.2853 7.84333C17.2853 7.54128 17.5291 7.29746 17.8312 7.29746C18.1332 7.29746 18.377 7.54128 18.377 7.84333ZM14.5561 8.51656C13.0495 9.15704 11.4592 9.48091 9.82537 9.48091C8.19157 9.48091 6.58292 9.14611 5.09468 8.51656V5.69636L9.70543 7.30482C9.74546 7.31937 9.78549 7.32665 9.82552 7.32665C9.86554 7.32665 9.90558 7.31937 9.9456 7.30482L14.5564 5.69636L14.5561 8.51656ZM9.82537 0.743476L18.1807 3.65847L17.7549 3.80767L9.87635 3.29457C9.67984 3.28001 9.50152 3.43285 9.49062 3.63299C9.47607 3.83314 9.62891 4.00783 9.82905 4.01872L15.99 4.41904L9.82183 6.56974L1.4665 3.65475L9.82183 0.739754L9.82537 0.743476Z" fill="black" fill-opacity="0.8"/>
<path d="M19.2869 14.6448V12.9053C19.2869 12.7925 19.2359 12.6869 19.1449 12.6178C19.0539 12.5486 18.9375 12.5232 18.832 12.5523C17.4637 12.9089 16.2591 12.4868 15.0946 12.0828C13.366 11.4787 11.5792 10.8565 9.82892 13.3383C8.07489 10.86 6.29161 11.4787 4.56325 12.0828C3.39875 12.4904 2.19418 12.9089 0.825887 12.5523C0.716714 12.5232 0.600263 12.5486 0.512914 12.6178C0.425564 12.6869 0.370988 12.7925 0.370988 12.9053V14.6448C0.149005 14.8449 0.00708008 15.1324 0.00708008 15.4527V15.8166C0.00708008 16.417 0.498362 16.9083 1.09881 16.9083H8.29336C8.51898 17.5488 9.13399 18 9.8327 18C10.5314 18 11.1464 17.5488 11.372 16.9083H18.5666C19.167 16.9083 19.6583 16.417 19.6583 15.8166V15.4527C19.6583 15.1324 19.5164 14.8449 19.2944 14.6448H19.2869ZM14.8508 12.767C15.9425 13.1491 17.1652 13.5749 18.559 13.3529V14.3609H11.5829C11.0953 14.3609 10.615 14.4919 10.1892 14.7284V14.0989C11.7139 11.6716 13.0348 12.1338 14.8508 12.767ZM1.09144 13.3529C2.48521 13.5785 3.70785 13.1491 4.79969 12.767C6.61923 12.1302 7.94013 11.6753 9.46144 14.1025V14.7248C9.03931 14.4883 8.55532 14.3609 8.06767 14.3609H1.09158L1.09144 13.3529ZM18.9228 15.8165C18.9228 16.0167 18.7591 16.1804 18.5589 16.1804H11.0842C11.0842 16.1804 11.0551 16.1877 11.0369 16.1913C11.0114 16.1913 10.9896 16.1986 10.9641 16.2059C10.9423 16.2132 10.9204 16.2241 10.9022 16.235C10.8804 16.2459 10.8622 16.2568 10.844 16.2714C10.8258 16.286 10.8113 16.3042 10.7967 16.3223C10.7821 16.3405 10.7676 16.3587 10.7603 16.3806C10.7494 16.4024 10.7421 16.4242 10.7348 16.4497C10.7312 16.4643 10.7203 16.4788 10.7203 16.4934C10.6584 16.9373 10.269 17.2722 9.82142 17.2722C9.37381 17.2722 8.98442 16.9374 8.92256 16.4934C8.92256 16.4788 8.91164 16.4643 8.908 16.4497C8.90072 16.4242 8.89345 16.4024 8.88253 16.3806C8.87161 16.3587 8.85705 16.3405 8.8425 16.3223C8.82794 16.3042 8.81338 16.286 8.79883 16.2714C8.78063 16.2532 8.7588 16.2423 8.73697 16.2314C8.71877 16.2205 8.70057 16.2095 8.67874 16.2023C8.65326 16.195 8.62779 16.1913 8.60232 16.1877C8.58776 16.1877 8.57321 16.1804 8.55865 16.1804H1.09137C0.891218 16.1804 0.72746 16.0167 0.72746 15.8165V15.4526C0.72746 15.2525 0.891218 15.0887 1.09137 15.0887H8.06746C8.62424 15.0887 9.17374 15.3143 9.56676 15.711C9.59951 15.7437 9.63591 15.7656 9.67594 15.7838C9.68685 15.7874 9.69777 15.791 9.71233 15.7947C9.74144 15.8056 9.77419 15.8092 9.8033 15.8129H9.83969C9.87973 15.8129 9.91611 15.8056 9.95615 15.791H9.96706C10.0071 15.7729 10.0435 15.7474 10.0726 15.7183C10.0726 15.7183 10.0799 15.7146 10.0835 15.711C10.4765 15.318 11.026 15.0887 11.5828 15.0887H18.5589C18.7591 15.0887 18.9228 15.2525 18.9228 15.4526L18.9228 15.8165Z" fill="black" fill-opacity="0.8"/>
</svg>
