<svg width="19" height="19" viewBox="0 0 19 19" fill="none" xmlns="http://www.w3.org/2000/svg">
<path d="M18.025 6.80906H13.4687V5.73711L13.8614 5.9842C13.9664 6.05012 14.1055 6.01892 14.1717 5.91345C14.2378 5.80842 14.2062 5.66956 14.1009 5.6032L9.46467 2.68564V2.47539H11.7799C11.9043 2.47539 12.0049 2.37476 12.0049 2.25039V0.475C12.0049 0.350635 11.9043 0.25 11.7799 0.25H9.23967C9.11531 0.25 9.01467 0.350635 9.01467 0.475V2.69863L4.39888 5.6032C4.29363 5.66956 4.26199 5.80842 4.32812 5.91345C4.37097 5.98157 4.44414 6.0187 4.51885 6.0187C4.55972 6.0187 4.60124 6.00749 4.63838 5.9842L5.03125 5.73698V6.80906H0.475C0.350635 6.80906 0.25 6.90969 0.25 7.03406V18.025C0.25 18.1494 0.350635 18.25 0.475 18.25H18.025C18.1494 18.25 18.25 18.1494 18.25 18.025V7.03406C18.25 6.90969 18.1494 6.80906 18.025 6.80906ZM9.46467 0.7H11.5549V2.02539H9.46467V0.7ZM13.9754 17.8H4.50369V16.4245H13.9754V17.8ZM11.3587 15.9745H9.475V12.7544H11.3587V15.9745ZM9.025 15.9745H7.13997V12.7544H9.025V15.9745ZM9.25 3.08228L13.0187 5.45394V15.9745H11.8087V12.5294C11.8087 12.4051 11.7081 12.3044 11.5837 12.3044H6.91497C6.7906 12.3044 6.68997 12.4051 6.68997 12.5294V15.9745H5.48125V5.45381L9.25 3.08228ZM0.7 7.25906H5.03125V15.9745H4.27869C4.15432 15.9745 4.05369 16.0751 4.05369 16.1995V17.8H0.7V7.25906ZM17.8 17.8H14.4254V16.1995C14.4254 16.0751 14.3248 15.9745 14.2004 15.9745H13.4687V7.25906H17.8V17.8Z" stroke="black" stroke-opacity="0.8" stroke-width="0.5"/>
<path d="M1.96157 11.4349C2.08594 11.4349 2.18657 11.3343 2.18657 11.2099V9.44686C2.18657 9.3225 2.08594 9.22186 1.96157 9.22186C1.83721 9.22186 1.73657 9.3225 1.73657 9.44686V11.2099C1.73657 11.3343 1.83721 11.4349 1.96157 11.4349Z" stroke="black" stroke-opacity="0.8" stroke-width="0.5"/>
<path d="M3.7189 11.4349C3.84326 11.4349 3.9439 11.3343 3.9439 11.2099V9.44686C3.9439 9.3225 3.84326 9.22186 3.7189 9.22186C3.59453 9.22186 3.4939 9.3225 3.4939 9.44686V11.2099C3.4939 11.3343 3.59453 11.4349 3.7189 11.4349Z" stroke="black" stroke-opacity="0.8" stroke-width="0.5"/>
<path d="M1.97354 12.8109C1.84917 12.8109 1.74854 12.9115 1.74854 13.0359V14.799C1.74854 14.9234 1.84917 15.024 1.97354 15.024C2.0979 15.024 2.19854 14.9234 2.19854 14.799V13.0359C2.19854 12.9115 2.0979 12.8109 1.97354 12.8109Z" stroke="black" stroke-opacity="0.8" stroke-width="0.5"/>
<path d="M3.73062 12.8109C3.60625 12.8109 3.50562 12.9115 3.50562 13.0359V14.799C3.50562 14.9234 3.60625 15.024 3.73062 15.024C3.85498 15.024 3.95562 14.9234 3.95562 14.799V13.0359C3.95562 12.9115 3.85498 12.8109 3.73062 12.8109Z" stroke="black" stroke-opacity="0.8" stroke-width="0.5"/>
<path d="M14.8185 11.4349C14.9429 11.4349 15.0435 11.3343 15.0435 11.2099V9.44686C15.0435 9.3225 14.9429 9.22186 14.8185 9.22186C14.6941 9.22186 14.5935 9.3225 14.5935 9.44686V11.2099C14.5935 11.3343 14.6941 11.4349 14.8185 11.4349Z" stroke="black" stroke-opacity="0.8" stroke-width="0.5"/>
<path d="M16.5756 11.4349C16.7 11.4349 16.8006 11.3343 16.8006 11.2099V9.44686C16.8006 9.3225 16.7 9.22186 16.5756 9.22186C16.4512 9.22186 16.3506 9.3225 16.3506 9.44686V11.2099C16.3506 11.3343 16.4512 11.4349 16.5756 11.4349Z" stroke="black" stroke-opacity="0.8" stroke-width="0.5"/>
<path d="M14.8305 12.8109C14.7061 12.8109 14.6055 12.9115 14.6055 13.0359V14.799C14.6055 14.9234 14.7061 15.024 14.8305 15.024C14.9548 15.024 15.0555 14.9234 15.0555 14.799V13.0359C15.0555 12.9115 14.9548 12.8109 14.8305 12.8109Z" stroke="black" stroke-opacity="0.8" stroke-width="0.5"/>
<path d="M16.5875 12.8109C16.4632 12.8109 16.3625 12.9115 16.3625 13.0359V14.799C16.3625 14.9234 16.4632 15.024 16.5875 15.024C16.7119 15.024 16.8125 14.9234 16.8125 14.799V13.0359C16.8125 12.9115 16.7119 12.8109 16.5875 12.8109Z" stroke="black" stroke-opacity="0.8" stroke-width="0.5"/>
<path d="M7.76357 10.3996H10.7365C10.8608 10.3996 10.9615 10.299 10.9615 10.1746V7.59417C10.9615 6.65066 10.1938 5.88293 9.25002 5.88293C8.3063 5.88293 7.53857 6.65066 7.53857 7.59417V10.1746C7.53857 10.299 7.63921 10.3996 7.76357 10.3996ZM7.98857 7.59417C7.98857 6.89873 8.55437 6.33293 9.25002 6.33293C9.94568 6.33293 10.5115 6.89873 10.5115 7.59417V9.94963H7.98857V7.59417Z" stroke="black" stroke-opacity="0.8" stroke-width="0.5"/>
</svg>
