<svg width="19" height="19" viewBox="0 0 19 19" fill="none" xmlns="http://www.w3.org/2000/svg">
<mask id="path-1-outside-1_743_110" maskUnits="userSpaceOnUse" x="-0.899902" y="-0.900024" width="20" height="20" fill="black">
<rect fill="white" x="-0.899902" y="-0.900024" width="20" height="20"/>
<path d="M18.1081 16.2352H17.3342V15.1038C17.3342 14.9329 17.1943 14.793 17.0234 14.793H16.9519V8.53664H17.0234C17.1943 8.53664 17.3342 8.39678 17.3342 8.22584V7.10075H17.9993C18.1734 7.10075 18.3101 6.96089 18.3101 6.78995V4.76044C18.3101 4.64233 18.2449 4.53666 18.1392 4.48383L9.39935 0.13261C9.30922 0.0890975 9.20976 0.0890975 9.11964 0.13261L0.379805 4.48383C0.274133 4.53666 0.208863 4.64234 0.208863 4.76044V6.78995C0.208863 6.96089 0.345616 7.10075 0.519665 7.10075H1.18479V8.22584C1.18479 8.39678 1.32465 8.53664 1.49559 8.53664H1.56708V14.793H1.49559C1.32465 14.793 1.18479 14.9329 1.18479 15.1038V16.2352H0.410899C0.239957 16.2352 0.100098 16.3719 0.100098 16.546V17.7892C0.100098 17.9601 0.239957 18.1 0.410899 18.1H18.108C18.2789 18.1 18.4188 17.9601 18.4188 17.7892V16.546C18.4188 16.3719 18.279 16.2352 18.1081 16.2352ZM0.830717 6.47909V4.95305L9.25965 0.757176L17.6886 4.95305V6.47909H0.830717ZM16.7127 15.4147V16.2352H14.5495V15.4147H16.7127ZM14.9318 14.793V8.53664H16.3304V14.793H14.9318ZM14.5495 7.91504V7.10073H16.7127V7.91504H14.5495ZM10.652 14.793H10.5806V8.53664H10.652C10.823 8.53664 10.9628 8.39678 10.9628 8.22584V7.10075H13.9278V8.22584C13.9278 8.39678 14.0677 8.53664 14.2386 8.53664H14.3101V14.793H14.2386C14.0677 14.793 13.9278 14.9329 13.9278 15.1038V16.2352H10.9628V15.1038C10.9628 14.9329 10.823 14.793 10.652 14.793ZM10.3412 15.4147V16.2352H8.17806V15.4147H10.3412ZM8.56035 14.793V8.53664H9.95895V14.793H8.56035ZM8.17806 7.91504V7.10073H10.3412V7.91504H8.17806ZM4.28056 14.793H4.20908V8.53664H4.28056C4.4515 8.53664 4.59136 8.39678 4.59136 8.22584V7.10075H7.55636V8.22584C7.55636 8.39678 7.69622 8.53664 7.86716 8.53664H7.93865V14.793H7.86716C7.69622 14.793 7.55636 14.9329 7.55636 15.1038V16.2352H4.59136V15.1038C4.59136 14.9329 4.4515 14.793 4.28056 14.793ZM1.80648 7.91504V7.10073H3.96966V7.91504H1.80648ZM3.58737 8.53664V14.793H2.18877V8.53664H3.58737ZM1.80648 15.4147H3.96966V16.2352H1.80648V15.4147ZM17.7973 17.4784H0.721812V16.8568H17.7973V17.4784Z"/>
</mask>
<path d="M18.1081 16.2352H17.3342V15.1038C17.3342 14.9329 17.1943 14.793 17.0234 14.793H16.9519V8.53664H17.0234C17.1943 8.53664 17.3342 8.39678 17.3342 8.22584V7.10075H17.9993C18.1734 7.10075 18.3101 6.96089 18.3101 6.78995V4.76044C18.3101 4.64233 18.2449 4.53666 18.1392 4.48383L9.39935 0.13261C9.30922 0.0890975 9.20976 0.0890975 9.11964 0.13261L0.379805 4.48383C0.274133 4.53666 0.208863 4.64234 0.208863 4.76044V6.78995C0.208863 6.96089 0.345616 7.10075 0.519665 7.10075H1.18479V8.22584C1.18479 8.39678 1.32465 8.53664 1.49559 8.53664H1.56708V14.793H1.49559C1.32465 14.793 1.18479 14.9329 1.18479 15.1038V16.2352H0.410899C0.239957 16.2352 0.100098 16.3719 0.100098 16.546V17.7892C0.100098 17.9601 0.239957 18.1 0.410899 18.1H18.108C18.2789 18.1 18.4188 17.9601 18.4188 17.7892V16.546C18.4188 16.3719 18.279 16.2352 18.1081 16.2352ZM0.830717 6.47909V4.95305L9.25965 0.757176L17.6886 4.95305V6.47909H0.830717ZM16.7127 15.4147V16.2352H14.5495V15.4147H16.7127ZM14.9318 14.793V8.53664H16.3304V14.793H14.9318ZM14.5495 7.91504V7.10073H16.7127V7.91504H14.5495ZM10.652 14.793H10.5806V8.53664H10.652C10.823 8.53664 10.9628 8.39678 10.9628 8.22584V7.10075H13.9278V8.22584C13.9278 8.39678 14.0677 8.53664 14.2386 8.53664H14.3101V14.793H14.2386C14.0677 14.793 13.9278 14.9329 13.9278 15.1038V16.2352H10.9628V15.1038C10.9628 14.9329 10.823 14.793 10.652 14.793ZM10.3412 15.4147V16.2352H8.17806V15.4147H10.3412ZM8.56035 14.793V8.53664H9.95895V14.793H8.56035ZM8.17806 7.91504V7.10073H10.3412V7.91504H8.17806ZM4.28056 14.793H4.20908V8.53664H4.28056C4.4515 8.53664 4.59136 8.39678 4.59136 8.22584V7.10075H7.55636V8.22584C7.55636 8.39678 7.69622 8.53664 7.86716 8.53664H7.93865V14.793H7.86716C7.69622 14.793 7.55636 14.9329 7.55636 15.1038V16.2352H4.59136V15.1038C4.59136 14.9329 4.4515 14.793 4.28056 14.793ZM1.80648 7.91504V7.10073H3.96966V7.91504H1.80648ZM3.58737 8.53664V14.793H2.18877V8.53664H3.58737ZM1.80648 15.4147H3.96966V16.2352H1.80648V15.4147ZM17.7973 17.4784H0.721812V16.8568H17.7973V17.4784Z" fill="black"/>
<path d="M18.1081 16.2352H17.3342V15.1038C17.3342 14.9329 17.1943 14.793 17.0234 14.793H16.9519V8.53664H17.0234C17.1943 8.53664 17.3342 8.39678 17.3342 8.22584V7.10075H17.9993C18.1734 7.10075 18.3101 6.96089 18.3101 6.78995V4.76044C18.3101 4.64233 18.2449 4.53666 18.1392 4.48383L9.39935 0.13261C9.30922 0.0890975 9.20976 0.0890975 9.11964 0.13261L0.379805 4.48383C0.274133 4.53666 0.208863 4.64234 0.208863 4.76044V6.78995C0.208863 6.96089 0.345616 7.10075 0.519665 7.10075H1.18479V8.22584C1.18479 8.39678 1.32465 8.53664 1.49559 8.53664H1.56708V14.793H1.49559C1.32465 14.793 1.18479 14.9329 1.18479 15.1038V16.2352H0.410899C0.239957 16.2352 0.100098 16.3719 0.100098 16.546V17.7892C0.100098 17.9601 0.239957 18.1 0.410899 18.1H18.108C18.2789 18.1 18.4188 17.9601 18.4188 17.7892V16.546C18.4188 16.3719 18.279 16.2352 18.1081 16.2352ZM0.830717 6.47909V4.95305L9.25965 0.757176L17.6886 4.95305V6.47909H0.830717ZM16.7127 15.4147V16.2352H14.5495V15.4147H16.7127ZM14.9318 14.793V8.53664H16.3304V14.793H14.9318ZM14.5495 7.91504V7.10073H16.7127V7.91504H14.5495ZM10.652 14.793H10.5806V8.53664H10.652C10.823 8.53664 10.9628 8.39678 10.9628 8.22584V7.10075H13.9278V8.22584C13.9278 8.39678 14.0677 8.53664 14.2386 8.53664H14.3101V14.793H14.2386C14.0677 14.793 13.9278 14.9329 13.9278 15.1038V16.2352H10.9628V15.1038C10.9628 14.9329 10.823 14.793 10.652 14.793ZM10.3412 15.4147V16.2352H8.17806V15.4147H10.3412ZM8.56035 14.793V8.53664H9.95895V14.793H8.56035ZM8.17806 7.91504V7.10073H10.3412V7.91504H8.17806ZM4.28056 14.793H4.20908V8.53664H4.28056C4.4515 8.53664 4.59136 8.39678 4.59136 8.22584V7.10075H7.55636V8.22584C7.55636 8.39678 7.69622 8.53664 7.86716 8.53664H7.93865V14.793H7.86716C7.69622 14.793 7.55636 14.9329 7.55636 15.1038V16.2352H4.59136V15.1038C4.59136 14.9329 4.4515 14.793 4.28056 14.793ZM1.80648 7.91504V7.10073H3.96966V7.91504H1.80648ZM3.58737 8.53664V14.793H2.18877V8.53664H3.58737ZM1.80648 15.4147H3.96966V16.2352H1.80648V15.4147ZM17.7973 17.4784H0.721812V16.8568H17.7973V17.4784Z" stroke="black" stroke-width="0.2" mask="url(#path-1-outside-1_743_110)"/>
<mask id="path-2-inside-2_743_110" fill="white">
<path d="M12.349 3.07591C12.3459 3.05726 12.3397 3.04172 12.3335 3.02307C12.3273 3.00753 12.3211 2.99199 12.3117 2.97645C12.2838 2.91429 12.2278 2.86767 12.1595 2.8397L9.1509 1.64622C9.07631 1.61825 8.9955 1.61825 8.92092 1.64622L5.91236 2.8397C5.79425 2.88632 5.71655 3.00132 5.71655 3.12874C5.71655 3.25616 5.79425 3.37118 5.91236 3.41778L6.68625 3.72548C6.67693 3.75656 6.67071 3.78764 6.67071 3.82183V4.96247C6.67071 5.45665 7.07164 5.86069 7.56582 5.86069H10.5059C11.0001 5.86069 11.4042 5.45665 11.4042 4.96247V3.82183C11.4042 3.78764 11.3979 3.75656 11.3855 3.72548L11.7336 3.58562V4.90652C11.7336 5.08057 11.8735 5.21732 12.0444 5.21732C12.2185 5.21732 12.3552 5.08057 12.3552 4.90652V3.12874C12.3552 3.11009 12.3522 3.09145 12.349 3.07591ZM10.7826 4.96248C10.7826 5.11477 10.6583 5.23909 10.506 5.23909H7.56587C7.41358 5.23909 7.29236 5.11477 7.29236 4.96248V3.96481L8.92096 4.61128C8.95826 4.62371 8.99866 4.63304 9.03596 4.63304C9.07636 4.63304 9.11366 4.62371 9.15095 4.61128L10.7827 3.96481L10.7826 4.96248ZM9.03591 3.98657L6.87274 3.12876L9.03591 2.27095L11.2023 3.12876L9.03591 3.98657Z"/>
</mask>
<path d="M12.349 3.07591C12.3459 3.05726 12.3397 3.04172 12.3335 3.02307C12.3273 3.00753 12.3211 2.99199 12.3117 2.97645C12.2838 2.91429 12.2278 2.86767 12.1595 2.8397L9.1509 1.64622C9.07631 1.61825 8.9955 1.61825 8.92092 1.64622L5.91236 2.8397C5.79425 2.88632 5.71655 3.00132 5.71655 3.12874C5.71655 3.25616 5.79425 3.37118 5.91236 3.41778L6.68625 3.72548C6.67693 3.75656 6.67071 3.78764 6.67071 3.82183V4.96247C6.67071 5.45665 7.07164 5.86069 7.56582 5.86069H10.5059C11.0001 5.86069 11.4042 5.45665 11.4042 4.96247V3.82183C11.4042 3.78764 11.3979 3.75656 11.3855 3.72548L11.7336 3.58562V4.90652C11.7336 5.08057 11.8735 5.21732 12.0444 5.21732C12.2185 5.21732 12.3552 5.08057 12.3552 4.90652V3.12874C12.3552 3.11009 12.3522 3.09145 12.349 3.07591ZM10.7826 4.96248C10.7826 5.11477 10.6583 5.23909 10.506 5.23909H7.56587C7.41358 5.23909 7.29236 5.11477 7.29236 4.96248V3.96481L8.92096 4.61128C8.95826 4.62371 8.99866 4.63304 9.03596 4.63304C9.07636 4.63304 9.11366 4.62371 9.15095 4.61128L10.7827 3.96481L10.7826 4.96248ZM9.03591 3.98657L6.87274 3.12876L9.03591 2.27095L11.2023 3.12876L9.03591 3.98657Z" fill="black"/>
<path d="M12.349 3.07591L11.3627 3.24031L11.3653 3.25622L11.3685 3.27204L12.349 3.07591ZM12.3335 3.02307L13.2822 2.70682L13.2729 2.67895L13.262 2.65168L12.3335 3.02307ZM12.3117 2.97645L11.3998 3.38681L11.424 3.44049L11.4543 3.49096L12.3117 2.97645ZM12.1595 2.8397L12.5381 1.9141L12.5282 1.91017L12.1595 2.8397ZM9.1509 1.64622L9.51964 0.71669L9.51086 0.713206L9.50201 0.709889L9.1509 1.64622ZM8.92092 1.64622L8.56976 0.709905L8.56094 0.713214L8.55218 0.71669L8.92092 1.64622ZM5.91236 2.8397L6.27953 3.76985L6.2811 3.76923L5.91236 2.8397ZM5.91236 3.41778L6.28183 2.48853L6.27942 2.48758L5.91236 3.41778ZM6.68625 3.72548L7.64408 4.01283L7.90746 3.13489L7.05572 2.79624L6.68625 3.72548ZM11.3855 3.72548L11.0127 2.79757L10.0862 3.16981L10.457 4.09685L11.3855 3.72548ZM11.7336 3.58562H12.7336V2.10614L11.3608 2.65771L11.7336 3.58562ZM10.7826 4.96248L9.78261 4.96243V4.96248H10.7826ZM7.29236 3.96481L7.66131 3.03536L6.29236 2.49196V3.96481H7.29236ZM8.92096 4.61128L8.55202 5.54073L8.57811 5.55109L8.60473 5.55996L8.92096 4.61128ZM9.15095 4.61128L9.4672 5.55995L9.49351 5.55118L9.51929 5.54097L9.15095 4.61128ZM10.7827 3.96481L11.7827 3.96486L11.7827 2.49297L10.4143 3.03512L10.7827 3.96481ZM9.03591 3.98657L8.66729 4.91615L9.03564 5.06222L9.40407 4.91634L9.03591 3.98657ZM6.87274 3.12876L6.50411 2.19918L4.15996 3.12876L6.50411 4.05834L6.87274 3.12876ZM9.03591 2.27095L9.40407 1.34118L9.03564 1.1953L8.66729 1.34137L9.03591 2.27095ZM11.2023 3.12876L11.5704 4.05852L13.9185 3.12876L11.5704 2.199L11.2023 3.12876ZM12.349 3.07591L13.3354 2.91151C13.3233 2.83895 13.3065 2.78128 13.2954 2.74629C13.2902 2.72994 13.2854 2.71614 13.2836 2.71089C13.2808 2.70279 13.2817 2.70533 13.2822 2.70682L12.3335 3.02307L11.3848 3.33933C11.3884 3.35014 11.3924 3.36161 11.3926 3.36225C11.3938 3.36575 11.392 3.3605 11.3895 3.3527C11.3838 3.33479 11.3716 3.29422 11.3627 3.24031L12.349 3.07591ZM12.3335 3.02307L13.262 2.65168C13.259 2.64433 13.2258 2.55624 13.1692 2.46194L12.3117 2.97645L11.4543 3.49096C11.4336 3.45653 11.4197 3.42763 11.4119 3.41011C11.4053 3.39544 11.4007 3.38365 11.405 3.39446L12.3335 3.02307ZM12.3117 2.97645L13.2237 2.5661C13.0649 2.21331 12.7788 2.01264 12.5381 1.91415L12.1595 2.8397L11.7808 3.76525C11.6768 3.7227 11.5026 3.61528 11.3998 3.38681L12.3117 2.97645ZM12.1595 2.8397L12.5282 1.91017L9.51964 0.71669L9.1509 1.64622L8.78216 2.57576L11.7907 3.76923L12.1595 2.8397ZM9.1509 1.64622L9.50201 0.709889C9.20106 0.597035 8.87076 0.597018 8.56976 0.709905L8.92092 1.64622L9.27207 2.58254C9.12023 2.63948 8.95156 2.63947 8.79979 2.58256L9.1509 1.64622ZM8.92092 1.64622L8.55218 0.71669L5.54362 1.91017L5.91236 2.8397L6.2811 3.76923L9.28966 2.57576L8.92092 1.64622ZM5.91236 2.8397L5.54519 1.90955C5.0417 2.10829 4.71655 2.59452 4.71655 3.12874H5.71655H6.71655C6.71655 3.40811 6.5468 3.66435 6.27953 3.76985L5.91236 2.8397ZM5.71655 3.12874H4.71655C4.71655 3.66287 5.04163 4.14923 5.5453 4.34798L5.91236 3.41778L6.27942 2.48758C6.54687 2.59312 6.71655 2.84946 6.71655 3.12874H5.71655ZM5.91236 3.41778L5.54289 4.34702L6.31678 4.65472L6.68625 3.72548L7.05572 2.79624L6.28183 2.48854L5.91236 3.41778ZM6.68625 3.72548L5.72842 3.43813C5.7009 3.52987 5.67071 3.66133 5.67071 3.82183H6.67071H7.67071C7.67071 3.91395 7.65295 3.98325 7.64408 4.01283L6.68625 3.72548ZM6.67071 3.82183H5.67071V4.96247H6.67071H7.67071V3.82183H6.67071ZM6.67071 4.96247H5.67071C5.67071 6.00443 6.51486 6.86069 7.56582 6.86069V5.86069V4.86069C7.62842 4.86069 7.67071 4.90888 7.67071 4.96247H6.67071ZM7.56582 5.86069V6.86069H10.5059V5.86069V4.86069H7.56582V5.86069ZM10.5059 5.86069V6.86069C11.5524 6.86069 12.4042 6.00894 12.4042 4.96247H11.4042H10.4042C10.4042 4.93163 10.4177 4.90536 10.4333 4.88979C10.4488 4.87422 10.4751 4.86069 10.5059 4.86069V5.86069ZM11.4042 4.96247H12.4042V3.82183H11.4042H10.4042V4.96247H11.4042ZM11.4042 3.82183H12.4042C12.4042 3.65711 12.3724 3.50018 12.314 3.35411L11.3855 3.72548L10.457 4.09685C10.4235 4.01294 10.4042 3.91817 10.4042 3.82183H11.4042ZM11.3855 3.72548L11.7583 4.65338L12.1064 4.51353L11.7336 3.58562L11.3608 2.65771L11.0127 2.79757L11.3855 3.72548ZM11.7336 3.58562H10.7336V4.90652H11.7336H12.7336V3.58562H11.7336ZM11.7336 4.90652H10.7336C10.7336 5.63937 11.3277 6.21732 12.0444 6.21732V5.21732V4.21732C12.4192 4.21732 12.7336 4.52177 12.7336 4.90652H11.7336ZM12.0444 5.21732V6.21732C12.7707 6.21732 13.3552 5.63285 13.3552 4.90652H12.3552H11.3552C11.3552 4.52829 11.6662 4.21732 12.0444 4.21732V5.21732ZM12.3552 4.90652H13.3552V3.12874H12.3552H11.3552V4.90652H12.3552ZM12.3552 3.12874H13.3552C13.3552 3.01046 13.3367 2.91511 13.3296 2.87978L12.349 3.07591L11.3685 3.27204C11.3675 3.26702 11.3644 3.25118 11.3615 3.22916C11.3587 3.20746 11.3552 3.17267 11.3552 3.12874H12.3552ZM10.7826 4.96248H9.78261C9.78261 4.56248 10.106 4.23909 10.506 4.23909V5.23909V6.23909C11.2106 6.23909 11.7826 5.66706 11.7826 4.96248H10.7826ZM10.506 5.23909V4.23909H7.56587V5.23909V6.23909H10.506V5.23909ZM7.56587 5.23909V4.23909C7.98052 4.23909 8.29236 4.57726 8.29236 4.96248H7.29236H6.29236C6.29236 5.65228 6.84663 6.23909 7.56587 6.23909V5.23909ZM7.29236 4.96248H8.29236V3.96481H7.29236H6.29236V4.96248H7.29236ZM7.29236 3.96481L6.92342 4.89426L8.55202 5.54073L8.92096 4.61128L9.2899 3.68183L7.66131 3.03536L7.29236 3.96481ZM8.92096 4.61128L8.60473 5.55996C8.69191 5.58902 8.84739 5.63304 9.03596 5.63304V4.63304V3.63304C9.09823 3.63304 9.14611 3.64054 9.17459 3.64624C9.20411 3.65215 9.22543 3.65868 9.23719 3.66259L8.92096 4.61128ZM9.03596 4.63304V5.63304C9.23165 5.63304 9.38619 5.58696 9.4672 5.55995L9.15095 4.61128L8.8347 3.6626C8.84112 3.66046 8.92107 3.63304 9.03596 3.63304V4.63304ZM9.15095 4.61128L9.51929 5.54097L11.151 4.8945L10.7827 3.96481L10.4143 3.03512L8.78262 3.68159L9.15095 4.61128ZM10.7827 3.96481L9.78265 3.96476L9.78261 4.96243L10.7826 4.96248L11.7826 4.96253L11.7827 3.96486L10.7827 3.96481ZM9.03591 3.98657L9.40454 3.05699L7.24136 2.19918L6.87274 3.12876L6.50411 4.05834L8.66729 4.91615L9.03591 3.98657ZM6.87274 3.12876L7.24136 4.05834L9.40454 3.20053L9.03591 2.27095L8.66729 1.34137L6.50411 2.19918L6.87274 3.12876ZM9.03591 2.27095L8.66776 3.20071L10.8341 4.05852L11.2023 3.12876L11.5704 2.199L9.40407 1.34118L9.03591 2.27095ZM11.2023 3.12876L10.8341 2.199L8.66776 3.05681L9.03591 3.98657L9.40407 4.91634L11.5704 4.05852L11.2023 3.12876Z" fill="black" mask="url(#path-2-inside-2_743_110)"/>
</svg>
